# xmcd
#
# Track frame offsets:
#	150
#	14217
#	27914
#	43460
#	58668
#	74136
#	89120
#	101640
#	115623
#	130022
#	143883
#	158907
#	173894
#	189841
#	204352
#	218292
#	232067
#	245601
#	258929
#	272869
#	287319
#	299550
#	313001
#
# Disc length: 4356 seconds
#
# Revision: 3
# Processed by: cddbd v1.5.2PL0 Copyright (c) Steve Scherf et al.
# Submitted via: audiograbber 1.83.01
#
DISCID=64110217
DTITLE=Jimmie Rodgers - Jimmie Rodgers Recordings 1927-1928 
DYEAR=1900
DGENRE=Country
TTITLE0=Jimmie Rodgers - The Soldier's Sweetheart 
TTITLE1=Jimmie Rodgers - Sleep, Baby Sleep 
TTITLE2=Jimmie Rodgers - Ben Dewberry's Final Run 
TTITLE3=Jimmie Rodgers - Mother Was A Lady 
TTITLE4=Jimmie Rodgers - Blue Yodel - ("T" For Texas)
TTITLE5=Jimmie Rodgers - Away Out On The Mountain 
TTITLE6=Jimmie Rodgers - Dear Old Sunny South By The Sea
TTITLE7=Jimmie Rodgers - Treasures Untold 
TTITLE8=Jimmie Rodgers - The Brakeman's Blues 
TTITLE9=Jimmie Rodgers - The Sailor's Plea 
TTITLE10=Jimmie Rodgers - In The Jailhouse Now 
TTITLE11=Jimmie Rodgers - Blue Yodel #2 
TTITLE12=Jimmie Rodgers - Memphis Yodel 
TTITLE13=Jimmie Rodgers - Blue Yodel #3 
TTITLE14=Jimmie Rodgers - My Old Pal 
TTITLE15=Jimmie Rodgers - My Little Old Home Down In New Orleans 
TTITLE16=Jimmie Rodgers - You And My Old Guitar 
TTITLE17=Jimmie Rodgers - Daddy And Home
TTITLE18=Jimmie Rodgers - My Little Lady 
TTITLE19=Jimmie Rodgers - Lullaby Yodel 
TTITLE20=Jimmie Rodgers - Never No Mo' Blues 
TTITLE21=Jimmie Rodgers - My Carolina Sunshine Girl 
TTITLE22=Jimmie Rodgers - Blue Yodel #4 
EXTD=
EXTT0=
EXTT1=
EXTT2=
EXTT3=
EXTT4=
EXTT5=
EXTT6=
EXTT7=
EXTT8=
EXTT9=
EXTT10=
EXTT11=
EXTT12=
EXTT13=
EXTT14=
EXTT15=
EXTT16=
EXTT17=
EXTT18=
EXTT19=
EXTT20=
EXTT21=
EXTT22=
PLAYORDER=
